# xmcd CD database file
#
# Track frame offsets:
#	150
#	41950
#	55875
#	74350
#	87600
#	101925
#	113250
#	126300
#	149600
#	161950
#	175275
#	186000
#	202925
#	219625
#	235125
#	258500
#	270675
#	286450
#
# Disc length: 4240 seconds
#
# Revision: 0
# Processed by: cddbd v1.5.1PL0 Copyright (c) Steve Scherf et al.
# Submitted via: CDex 1.51
#
DISCID=21108e12
DTITLE=Lester Young - Vol. II 1946-1959 [CD 1) 
DYEAR=1994
DGENRE=Jazz
TTITLE0=I Can't Get Started
TTITLE1=It's Only A Paper Moon
TTITLE2=Oh Lady Be Good
TTITLE3=New Lester Leaps In
TTITLE4=Jumpin'  With Symphony Sid
TTITLE5=I'm Confessin'
TTITLE6=Lester Smooths It Out
TTITLE7=Just You, Just Me
TTITLE8=Something To Remember You By
TTITLE9=Tea For Two
TTITLE10=Blue 'n' Bells
TTITLE11=Up 'n' Adam
TTITLE12=Body And Soul
TTITLE13=Neenah
TTITLE14=I Cover The Waterfront
TTITLE15=Undercover (Girl) Blues
TTITLE16=Ghost Of A Chance
TTITLE17=Indiana
EXTD=YEAR: 1994
EXTT0=
EXTT1=
EXTT2=
EXTT3=
EXTT4=
EXTT5=
EXTT6=
EXTT7=
EXTT8=
EXTT9=
EXTT10=
EXTT11=
EXTT12=
EXTT13=
EXTT14=
EXTT15=
EXTT16=
EXTT17=
PLAYORDER=
